# xmcd
#
# Track frame offsets: 
#        150
#        20948
#        41402
#        54769
#        66304
#        81550
#        97993
#        117776
#        139324
#        154166
#        169362
#        183570
#        200412
#        215116
#        231643
#        249952
#        270123
#        283883
#
# Disc length: 4046 seconds
#
# Revision: 0
# Processed by: cddbd v1.5.2PL0 Copyright (c) Steve Scherf et al.
# Submitted via: ExactAudioCopy v0.95b4
#
DISCID=110fcc12
DTITLE=Various Artist - A Tribute To Johnny Cash
DYEAR=2008
DGENRE=Country
TTITLE0=Sheryl Crow and Willie Nelson - Jackson, Orange Blossom Special
TTITLE1=Chris Isaak - Guess Things Happen Taht Way, Get Rythm
TTITLE2=Willie Nelson - I Still Miss Someone
TTITLE3=June Carter Cash - Ring Of Fire
TTITLE4=Bob Dylan - Train Of Love
TTITLE5=The Mavericks - Man In Black
TTITLE6=Kris Kristofferson - The Ballad Of Ira Hayes
TTITLE7=Kris Kristofferson and Trisha Yearwood - Sunday Morning Coming D
TTITLE7=own
TTITLE8=Brooks and Dunn - (Ghost) Riders In The Sky
TTITLE9=Lyle Lovett - Tennessee Flat Top Box
TTITLE10=Bruce Springsteen - Give My Love To Rose
TTITLE11=Emmylou Harris, Sheryl Crow, Mary Chapin Carpenter and Marty St
TTITLE11=uart - You Are What I Need (Flesh And Blood)
TTITLE12=Wyclef Jean - Delia's Gone
TTITLE13=Dave Matthews and Emmylou Harris - The Long Black Veil
TTITLE14=Marty Stuart and The Fairfield Four - Belshazzar
TTITLE15=U2 - Dont't Take Your Guns To Town
TTITLE16=Johnny Cash - Folsom Prison Blues
TTITLE17=Johnny Cash, June Carter Cash and The Ensemble - I Walk The Lin
TTITLE17=e
EXTD=
EXTT0=
EXTT1=
EXTT2=
EXTT3=
EXTT4=
EXTT5=
EXTT6=
EXTT7=
EXTT8=
EXTT9=
EXTT10=
EXTT11=
EXTT12=
EXTT13=
EXTT14=
EXTT15=
EXTT16=
EXTT17=
PLAYORDER=
